<svg xmlns="http://www.w3.org/2000/svg" xmlns:xlink="http://www.w3.org/1999/xlink" width="1024" zoomAndPan="magnify" viewBox="0 0 768 767.999994" height="1024" preserveAspectRatio="xMidYMid meet" version="1.0"><defs><clipPath id="ab4ec28e1f"><path d="M 16 192 L 759.628906 192 L 759.628906 538 L 16 538 Z M 16 192 " clip-rule="nonzero"/></clipPath></defs><g clip-path="url(#ab4ec28e1f)"><path fill="#6ecfc9" d="M 756.621094 335.96875 C 754.085938 329.722656 750.484375 324.164062 745.816406 319.300781 C 723.121094 295.410156 686.691406 289.359375 656.980469 278.734375 C 626.402344 267.804688 595.429688 257.863281 565.675781 244.769531 C 513.796875 221.917969 499.289062 218.710938 447.714844 195.199219 C 417.890625 181.609375 400.226562 227.6875 423.902344 243.828125 C 471.03125 276.074219 507.375 282.996094 557.242188 308.238281 C 509.089844 308.84375 434.894531 310.058594 386.910156 314.390625 C 269.851562 324.945312 152.5 334.652344 36.28125 352.484375 C 7.914062 356.824219 10.128906 405.394531 39.734375 403.570312 C 154.503906 396.484375 269.191406 388.914062 384.246094 390.832031 C 441.878906 391.796875 551.558594 391.074219 552.898438 391.089844 C 512.136719 417.578125 456.457031 455.113281 421.960938 489.589844 C 402.207031 509.339844 423.851562 550.664062 450.902344 533.5625 C 490.792969 508.355469 556.566406 475.996094 597.867188 453.234375 C 622.121094 439.875 647.035156 427.777344 672.121094 416.085938 C 693.511719 406.105469 718.3125 401.734375 737.777344 387.933594 C 740.703125 386.039062 743.394531 383.855469 745.847656 381.382812 C 748.304688 378.910156 750.46875 376.203125 752.339844 373.265625 C 754.214844 370.324219 755.753906 367.21875 756.957031 363.949219 C 758.160156 360.679688 759.003906 357.320312 759.484375 353.867188 C 759.933594 347.675781 758.976562 341.710938 756.621094 335.96875 Z M 756.621094 335.96875 " fill-opacity="1" fill-rule="nonzero"/></g></svg>